<?xml version="1.0" standalone="no"?>
<!DOCTYPE svg PUBLIC "-//W3C//DTD SVG 20010904//EN"
 "http://www.w3.org/TR/2001/REC-SVG-20010904/DTD/svg10.dtd">
<svg version="1.0" xmlns="http://www.w3.org/2000/svg"
 width="706.000000pt" height="706.000000pt" viewBox="0 0 706.000000 706.000000"
 preserveAspectRatio="xMidYMid meet">
<metadata>
Created by potrace 1.11, written by Peter Selinger 2001-2013
</metadata>
<g transform="translate(0.000000,706.000000) scale(0.100000,-0.100000)"
fill="#000000" stroke="none">
<path d="M3355 7049 c-486 -20 -956 -147 -1400 -378 -627 -325 -1139 -841
-1457 -1466 -195 -384 -310 -769 -353 -1177 -17 -170 -20 -545 -5 -699 35
-355 129 -714 269 -1034 34 -76 61 -141 61 -145 0 -4 -10 -12 -23 -18 l-22
-11 25 0 c14 -1 30 -5 36 -9 6 -4 45 -67 86 -140 l76 -133 -41 -34 c-23 -19
-53 -43 -67 -55 l-25 -20 75 5 c41 4 85 8 96 10 18 4 36 -14 101 -103 211
-286 487 -557 772 -757 67 -47 82 -63 101 -107 12 -29 28 -86 34 -126 l11 -74
45 49 c25 27 50 57 56 68 9 17 24 11 201 -76 l190 -94 5 -107 c5 -113 16 -143
62 -173 21 -14 57 -13 402 15 l378 31 210 -17 c132 -10 272 -15 373 -12 161 4
161 4 172 -19 22 -49 92 -112 147 -132 204 -77 599 -45 948 76 54 19 99 33
100 31 1 -2 10 -29 20 -62 10 -32 26 -79 37 -103 l19 -44 64 128 c86 171 165
281 316 438 194 201 341 393 470 609 37 62 110 161 173 234 60 70 135 162 166
205 l56 77 74 -6 75 -7 -37 50 c-20 28 -37 55 -37 60 0 5 29 58 65 119 227
378 376 796 446 1249 30 198 38 635 15 855 -44 417 -158 798 -354 1185 -318
625 -830 1141 -1457 1466 -545 284 -1104 404 -1750 378z m485 -90 c755 -63
1488 -407 2040 -959 540 -538 869 -1224 955 -1985 17 -152 20 -525 5 -676 -49
-486 -199 -951 -441 -1358 -61 -104 -65 -104 -94 3 l-17 63 51 90 c61 109 136
275 190 421 271 738 260 1551 -31 2282 -320 806 -982 1463 -1793 1783 -388
152 -749 220 -1175 220 -224 0 -342 -10 -545 -44 -994 -167 -1863 -814 -2318
-1726 -148 -297 -244 -604 -299 -958 -26 -168 -36 -560 -19 -742 33 -345 118
-684 245 -973 l44 -100 -27 -37 c-36 -50 -60 -69 -71 -57 -21 22 -107 235
-165 409 -120 358 -167 649 -168 1030 -1 317 25 536 98 825 303 1206 1274
2151 2490 2424 325 73 681 96 1045 65z m-6 -509 c95 -24 217 -86 317 -162 99
-74 145 -127 160 -180 13 -50 7 -212 -11 -271 -24 -81 -121 -144 -257 -166
-32 -5 -71 -16 -88 -25 -16 -8 -31 -13 -33 -11 -3 2 10 22 27 43 78 100 141
288 125 380 -11 70 -13 73 -47 70 l-32 -3 -1 -90 c-2 -140 -59 -267 -175 -387
-38 -40 -51 -48 -82 -48 -42 0 -43 0 -21 42 37 72 65 176 70 258 6 92 -6 132
-40 138 -32 7 -40 -14 -38 -96 3 -90 -20 -179 -75 -284 -36 -70 -48 -78 -117
-78 l-38 0 6 43 c25 180 29 370 6 406 -4 7 -20 11 -36 9 l-28 -3 -1 -145 c-1
-80 -7 -182 -14 -227 l-13 -83 -37 1 c-58 1 -72 11 -98 74 -42 100 -63 200
-63 305 0 99 -7 120 -42 120 -28 0 -38 -33 -38 -120 0 -93 21 -206 55 -297 27
-70 26 -71 -44 -57 -26 5 -38 18 -69 73 -59 105 -81 183 -82 281 0 47 4 101
10 120 14 49 5 70 -31 70 -39 0 -49 -27 -56 -145 -7 -113 7 -189 52 -284 19
-40 35 -75 35 -77 0 -16 -38 2 -64 30 -17 18 -45 41 -62 49 -74 38 -196 186
-215 261 -6 26 -9 68 -7 94 7 66 70 198 116 241 74 71 262 130 412 130 67 0
68 -2 14 -35 -13 -7 -15 -17 -10 -37 8 -35 35 -35 111 -1 49 21 243 73 325 87
63 11 153 5 224 -13z m1082 -814 c105 -105 147 -194 152 -326 4 -84 1 -104
-23 -170 -33 -94 -39 -131 -23 -150 7 -8 63 -56 123 -105 106 -86 219 -196
390 -376 96 -101 191 -174 302 -231 81 -42 89 -58 30 -58 -30 0 -77 -39 -77
-65 0 -8 43 -93 95 -188 101 -184 195 -388 195 -424 0 -54 171 -257 264 -314
l31 -19 -35 0 c-30 0 -66 13 -169 57 -11 5 -13 -1 -8 -28 38 -221 49 -295 63
-419 19 -171 15 -365 -12 -577 -22 -170 -14 -241 40 -365 19 -43 31 -78 27
-78 -9 0 -51 30 -73 52 -45 45 -91 1 -108 -103 -23 -140 -247 -546 -449 -816
-97 -129 -274 -329 -322 -365 -35 -26 -148 -179 -208 -282 l-39 -68 -14 49
c-8 30 -20 49 -30 51 -10 2 -57 -13 -106 -32 -271 -108 -670 -164 -873 -121
-139 28 -188 75 -215 205 -18 86 -12 235 11 280 43 83 206 71 424 -31 79 -37
86 -38 108 -24 31 20 29 35 -8 76 -35 38 -79 124 -79 154 0 34 20 45 80 45 81
0 160 -42 265 -141 91 -87 151 -169 170 -232 23 -78 80 -77 80 1 l0 41 85 32
c192 72 322 151 340 205 17 51 -3 117 -50 164 -19 19 -41 54 -48 77 -17 58
-53 97 -118 129 -54 26 -55 26 -210 19 l-156 -7 47 63 c80 109 171 317 205
471 14 62 5 88 -30 88 -27 0 -38 -20 -61 -106 -43 -165 -140 -362 -232 -469
l-40 -47 -71 7 c-125 11 -190 26 -226 50 -19 14 -61 33 -92 44 -31 10 -79 35
-107 54 -52 36 -127 68 -191 82 -19 4 -55 25 -80 45 -97 81 -215 139 -357 176
-6 1 -24 30 -38 63 -17 38 -46 78 -75 105 -38 35 -52 58 -65 103 -22 75 -38
105 -81 153 -43 48 -152 110 -191 110 -16 0 -53 -16 -83 -35 -30 -19 -73 -43
-95 -52 -22 -10 -103 -49 -181 -89 -107 -54 -171 -79 -267 -104 -83 -22 -128
-38 -133 -49 -12 -27 -24 -112 -30 -201 -3 -47 -12 -109 -20 -138 l-16 -52
-41 22 c-61 34 -159 135 -205 214 -72 121 -124 288 -138 444 -7 80 -16 100
-45 100 -36 0 -46 -32 -37 -123 22 -231 111 -448 245 -597 101 -113 297 -206
417 -198 57 3 64 7 108 50 57 57 128 95 198 104 60 8 70 0 70 -56 0 -39 -38
-128 -63 -149 -31 -25 -15 -81 22 -81 8 0 49 22 90 49 212 139 366 165 455 76
43 -43 59 -113 54 -234 -6 -157 -69 -231 -226 -268 -67 -16 -124 -18 -432 -18
-256 0 -376 4 -430 14 -97 17 -250 66 -322 102 -32 16 -72 29 -91 29 -35 0
-77 -30 -77 -55 0 -20 -5 -19 -46 9 -19 13 -60 61 -92 107 -31 46 -97 122
-146 169 -299 284 -374 376 -492 607 -63 124 -73 138 -99 141 -16 2 -45 -5
-64 -16 -78 -43 -81 -40 -42 40 33 67 36 78 36 162 0 55 -6 100 -13 114 -20
35 -56 45 -99 27 -52 -22 -55 -19 -27 22 13 20 34 67 45 104 18 60 21 98 23
321 2 237 3 261 30 373 33 146 102 353 162 488 24 56 44 110 44 120 0 10 -11
29 -25 42 -21 22 -33 25 -92 25 -71 0 -113 7 -113 19 0 4 35 30 77 56 138 87
245 209 363 413 78 137 191 274 362 443 115 114 168 173 168 188 0 12 -8 38
-19 59 -27 54 -68 189 -75 253 -16 128 38 278 139 387 63 68 136 118 160 108
11 -4 15 -21 15 -63 0 -76 15 -128 52 -183 55 -82 177 -157 271 -167 50 -5 66
-2 144 32 148 64 436 155 449 143 3 -3 9 -37 15 -74 13 -97 52 -168 122 -225
131 -106 262 -145 445 -135 184 11 363 76 465 170 40 36 72 117 89 219 7 40
13 73 14 75 4 7 201 -50 294 -85 l95 -36 85 17 c101 21 170 56 216 110 40 46
73 130 81 201 2 27 6 56 9 63 8 26 39 9 110 -62z m-1821 -104 c133 -25 598
-25 743 2 57 10 105 16 106 15 9 -10 -15 -216 -29 -267 -21 -71 -64 -115 -166
-165 -105 -52 -191 -70 -339 -71 -139 -1 -193 14 -295 79 -118 75 -143 127
-152 314 l-6 124 24 -6 c13 -4 65 -15 114 -25z m-2350 -3439 c16 -24 16 -30 1
-86 -9 -33 -23 -69 -30 -79 -13 -18 -16 -15 -48 39 -89 149 -87 138 -18 146
73 8 78 7 95 -20z m2330 -33 c4 -6 27 -20 52 -32 69 -32 104 -90 138 -228 3
-14 25 -39 48 -55 28 -21 52 -51 73 -94 43 -85 67 -107 128 -122 28 -6 69 -19
91 -27 51 -19 194 -111 236 -151 18 -17 42 -31 54 -31 44 0 123 -31 191 -75
38 -24 92 -52 119 -61 28 -9 59 -25 70 -34 56 -50 270 -76 558 -67 214 7 240
3 284 -44 12 -14 28 -49 36 -79 11 -43 20 -58 41 -68 15 -8 35 -29 44 -49 l17
-35 -30 -25 c-38 -31 -208 -114 -301 -146 l-70 -25 -57 74 c-69 89 -190 194
-265 231 -63 31 -186 43 -245 24 -57 -19 -81 -89 -57 -170 5 -19 9 -36 7 -37
-1 -1 -35 9 -76 22 -189 62 -332 31 -382 -81 -11 -25 -21 -79 -25 -138 -5 -76
-10 -98 -23 -101 -59 -17 -500 -57 -1342 -122 -79 -6 -88 -5 -97 12 -19 38
-22 133 -7 245 8 62 15 113 15 113 0 1 172 1 382 1 326 0 395 3 460 17 139 31
223 92 272 197 18 40 21 64 21 176 0 151 -11 195 -61 253 -93 109 -244 120
-433 32 -35 -17 -64 -30 -65 -30 0 0 1 24 2 54 3 39 -2 64 -17 94 -18 36 -26
42 -66 48 -102 15 -212 -24 -298 -105 -58 -55 -78 -60 -149 -40 -43 11 -47 27
-23 86 9 21 15 68 15 117 1 62 6 94 24 135 l23 54 114 34 c65 19 157 57 214
87 55 30 129 66 164 80 35 15 86 43 113 62 52 35 72 41 83 24z m-2166 -314
c80 -194 260 -425 491 -630 36 -32 49 -46 30 -31 -92 71 -268 238 -361 342
-98 108 -275 332 -268 336 10 7 75 36 80 36 3 1 15 -23 28 -53z m5306 -10 c17
-12 16 -16 -20 -62 -28 -36 -36 -42 -31 -24 4 14 10 42 13 63 6 41 10 43 38
23z m-4120 -1001 c49 -14 90 -27 93 -29 2 -2 2 -23 0 -46 l-3 -42 -160 81
c-87 45 -163 85 -168 90 -6 6 -7 17 -4 25 5 13 18 10 80 -19 41 -19 114 -46
162 -60z"/>
<path d="M2734 4329 c-68 -26 -127 -78 -158 -141 -23 -45 -24 -54 -12 -72 21
-33 44 -31 64 5 30 57 92 117 138 135 57 22 163 15 220 -14 164 -84 213 -360
103 -581 -58 -116 -151 -170 -269 -158 -78 9 -129 35 -175 92 -41 50 -54 54
-79 26 -35 -38 29 -122 126 -167 55 -25 75 -28 158 -29 115 0 165 19 238 92
161 161 190 514 56 696 -86 118 -270 170 -410 116z"/>
<path d="M4084 4329 c-68 -26 -127 -78 -158 -140 -26 -54 -23 -83 10 -96 16
-6 54 23 54 42 0 23 71 94 116 115 38 19 57 22 117 18 88 -6 140 -31 194 -92
128 -145 102 -475 -49 -611 -58 -52 -116 -70 -198 -62 -78 9 -129 35 -175 92
-41 50 -54 54 -79 26 -35 -38 29 -122 126 -167 55 -25 75 -28 158 -29 115 0
165 19 238 92 161 161 190 514 56 696 -86 118 -270 170 -410 116z"/>
<path d="M2820 4042 c-105 -105 -85 -352 29 -352 67 0 131 104 131 213 0 45
-3 54 -22 62 -19 8 -23 18 -24 53 -1 74 -54 85 -114 24z"/>
<path d="M4170 4042 c-105 -105 -85 -352 29 -352 67 0 131 104 131 213 0 45
-3 54 -22 62 -19 8 -23 18 -24 53 -1 74 -54 85 -114 24z"/>
<path d="M2726 2964 c-22 -22 -20 -34 10 -65 l27 -28 -22 -50 c-47 -111 -35
-198 32 -220 54 -18 106 0 170 59 l55 50 70 -30 c283 -120 565 -128 864 -24
56 20 124 47 151 60 l48 25 60 -55 c70 -65 116 -82 166 -61 65 27 79 118 34
220 -17 38 -18 45 -5 56 19 15 14 59 -7 72 -14 8 -36 -2 -107 -51 -173 -119
-371 -203 -557 -237 -119 -23 -347 -16 -450 13 -152 42 -293 116 -425 221 -41
34 -80 61 -87 61 -6 0 -19 -7 -27 -16z m1594 -154 c7 -17 13 -47 14 -68 2 -54
-26 -54 -80 -1 l-44 43 43 27 c23 15 45 28 48 28 4 1 12 -13 19 -29z m-1400
-60 c0 -12 -70 -66 -97 -74 -29 -9 -38 22 -22 72 24 76 25 76 74 42 25 -17 45
-35 45 -40z"/>
<path d="M3628 5460 c-14 -4 -54 -11 -87 -15 l-61 -7 0 -165 0 -166 63 7 c156
17 237 66 237 144 0 31 -6 45 -22 56 -18 13 -20 19 -10 38 22 45 24 69 8 93
-13 20 -24 25 -59 24 -23 0 -54 -4 -69 -9z m59 -75 c8 -22 -23 -53 -61 -60
-17 -4 -39 -9 -48 -11 -15 -5 -18 1 -18 35 0 43 6 47 83 50 26 1 40 -4 44 -14z
m16 -130 c13 -33 -54 -75 -120 -75 -20 0 -23 5 -23 38 l0 39 58 9 c63 11 78 9
85 -11z"/>
<path d="M3148 5431 c-31 -27 -33 -34 -33 -93 0 -107 68 -195 166 -217 53 -12
107 -1 133 28 16 18 16 20 -9 39 -24 19 -27 19 -57 5 -86 -44 -195 79 -148
167 23 43 108 44 154 1 21 -19 21 -19 50 3 l28 23 -35 27 c-44 34 -87 46 -159
46 -50 0 -62 -4 -90 -29z"/>
</g>
</svg>
