<svg xmlns="http://www.w3.org/2000/svg" width="761.606" height="1080.651" viewBox="0 0 761.606 1080.651">
  <g id="Group_15" data-name="Group 15" transform="translate(-1171.41 -24.974)">
    <path id="Path_43" data-name="Path 43" d="M10.656,115.144c-.18-.117,1081.027,1.118,1080.64-.035,1.532,1.133-150.491,403.128-513.606,419C77.527,555.963,10.742,876.715,10.742,876.715" transform="translate(2048.125 14.318) rotate(90)" fill="#ff194a" opacity="0.03"/>
    <path id="Path_44" data-name="Path 44" d="M10.656,115.135c-.132-.086,792.76.82,792.476-.025,1.123.831-110.361,295.63-376.647,307.266C59.7,438.4,10.719,673.625,10.719,673.625" transform="translate(2048.125 14.318) rotate(90)" fill="#ff194a" opacity="0.04"/>
    <path id="Path_42" data-name="Path 42" d="M10.656,115.126c-.088-.057,527.309.545,527.12-.017.747.552-73.407,196.64-250.529,204.38C43.275,330.151,10.7,486.609,10.7,486.609" transform="translate(2048.125 14.318) rotate(90)" fill="#ff194a" opacity="0.1"/>
  </g>
</svg>
