<svg xmlns="http://www.w3.org/2000/svg" width="137.741" height="158.2" viewBox="0 0 137.741 158.2">
  <g id="Bot_Flipping" data-name="Bot Flipping" transform="translate(-901 -5719)">
    <g id="iconfinder_robot_2120162" transform="translate(858.575 5634.351)">
      <path id="Path_28" data-name="Path 28" d="M163.81,146.825v-1.562a22.4,22.4,0,0,0-22.372-22.372H114.9v-9.559a14.076,14.076,0,1,0-7.209,0v9.559H81.153a22.4,22.4,0,0,0-22.372,22.372v1.562a18.961,18.961,0,0,0,.027,37.236,22.4,22.4,0,0,0,22.345,21.255h60.285a22.4,22.4,0,0,0,22.344-21.255,18.961,18.961,0,0,0,.027-37.236Zm-105.029,29.8a11.749,11.749,0,0,1,0-22.366Zm45.648-76.9a6.867,6.867,0,1,1,6.867,6.867A6.875,6.875,0,0,1,104.428,99.725ZM156.6,182.944h0a15.18,15.18,0,0,1-15.163,15.163H81.153A15.18,15.18,0,0,1,65.99,182.944V145.263A15.18,15.18,0,0,1,81.153,130.1h60.285A15.18,15.18,0,0,1,156.6,145.263Zm7.209-6.321V154.257a11.749,11.749,0,0,1,0,22.366Z" transform="translate(0 0)" fill="#1a1515" stroke="#1a1515" stroke-width="2"/>
      <path id="Path_29" data-name="Path 29" d="M492.887,400.611a10.633,10.633,0,1,0,10.634,10.633A10.645,10.645,0,0,0,492.887,400.611Zm0,14.058a3.424,3.424,0,1,1,3.425-3.424A3.427,3.427,0,0,1,492.887,414.669Z" transform="translate(-355.303 -255.012)" fill="#1a1515" stroke="#1a1515" stroke-width="2"/>
      <path id="Path_30" data-name="Path 30" d="M216.649,400.611a10.633,10.633,0,1,0,10.634,10.633A10.645,10.645,0,0,0,216.649,400.611Zm0,14.058a3.424,3.424,0,1,1,3.424-3.424A3.428,3.428,0,0,1,216.649,414.669Z" transform="translate(-131.643 -255.012)" fill="#1a1515" stroke="#1a1515" stroke-width="2"/>
      <path id="Path_31" data-name="Path 31" d="M352.706,571.221H333.061a3.6,3.6,0,1,0,0,7.209h19.645a3.6,3.6,0,1,0,0-7.209Z" transform="translate(-231.588 -393.148)" fill="#1a1515" stroke="#1a1515" stroke-width="2"/>
    </g>
    <text id="BOT_FLIPPING-2" data-name="BOT FLIPPING" transform="translate(970 5872)" fill="#1a1515" stroke="#1a1515" stroke-width="0.2" font-size="19" font-family="SegoeUI-Bold, Segoe UI" font-weight="700"><tspan x="-62.849" y="0">BOT FLIPPING</tspan></text>
  </g>
</svg>
