<svg id="Component_57_1" data-name="Component 57 – 1" xmlns="http://www.w3.org/2000/svg" width="113.501" height="113.598" viewBox="0 0 113.501 113.598">
  <defs>
    <style>
      .cls-1 {
        fill: none;
      }

      .cls-2 {
        fill: #ff1949;
      }
    </style>
  </defs>
  <path id="Path_10" data-name="Path 10" class="cls-1" d="M22.235,18.82l-.649-2.291L3.143,43.411l13.942-2.324.043,0a3.675,3.675,0,0,1,.976.031,3.855,3.855,0,0,1,.509.028,3.675,3.675,0,0,1,.428.2,3.726,3.726,0,0,1,.885.413c.086.062.141.165.223.236a3.734,3.734,0,0,1,.777.851l.027.03,6.453,10.756L34,23.485l-4.851.231a6.814,6.814,0,0,1-6.915-4.9Z" transform="translate(8.75 46.058)"/>
  <path id="Path_11" data-name="Path 11" class="cls-1" d="M57.8,49.308a6.691,6.691,0,0,1,2.921-3.86l6.452-4.027L64.459,34.61a6.543,6.543,0,0,1,0-4.877l2.714-6.807-6.46-4.031A6.7,6.7,0,0,1,57.8,15.045L55.766,7.861l-7.905.377a7.069,7.069,0,0,1-4.548-1.416l-6.2-4.777-6.193,4.77a7.088,7.088,0,0,1-4.544,1.424l-7.917-.377-2.034,7.177A6.692,6.692,0,0,1,13.5,18.9L7.049,22.925l2.714,6.811a6.543,6.543,0,0,1,0,4.877L7.049,41.421l6.46,4.03A6.7,6.7,0,0,1,16.423,49.3l2.034,7.185,7.906-.377c.107,0,.211-.008.318-.008a6.952,6.952,0,0,1,4.23,1.424l6.2,4.777,6.194-4.77a6.842,6.842,0,0,1,4.544-1.424l7.917.377Zm-20.688,1.8A18.932,18.932,0,1,1,56.043,32.173,18.932,18.932,0,0,1,37.111,51.105Z" transform="translate(19.635 5.697)"/>
  <path id="Path_12" data-name="Path 12" class="cls-1" d="M30.451,18.82a6.863,6.863,0,0,1-6.918,4.9l-4.848-.231,6.6,30.144,6.453-10.756.03-.033a3.715,3.715,0,0,1,.693-.76,3.873,3.873,0,0,1,.309-.326q.652-.309,1.31-.606a3.729,3.729,0,0,1,.5-.026,3.675,3.675,0,0,1,.981-.032c.015,0,.029,0,.044,0l13.942,2.324L31.1,16.529Z" transform="translate(52.057 46.058)"/>
  <circle id="Ellipse_5" data-name="Ellipse 5" class="cls-2" cx="18.932" cy="18.932" r="18.932" transform="translate(37.814 18.938)"/>
  <path id="Path_13" data-name="Path 13" class="cls-2" d="M113.475,94.775a2.588,2.588,0,0,0-.413-1.82,3.575,3.575,0,0,0-.183-.43l-.04-.057,0,0-25.3-36.874,3.913-2.442a6.634,6.634,0,0,0,2.692-8.083l-2.866-7.2,2.866-7.192a6.637,6.637,0,0,0-2.692-8.087l-6.826-4.26L82.51,10.862a6.744,6.744,0,0,0-6.915-4.9l-8.231.392L60.971,1.437l0,0a6.924,6.924,0,0,0-8.442,0L46.132,6.359l-8.227-.392a6.8,6.8,0,0,0-6.918,4.9l-2.115,7.469-6.826,4.26a6.634,6.634,0,0,0-2.692,8.083l2.866,7.2-2.866,7.192a6.637,6.637,0,0,0,2.692,8.087l3.913,2.442L.659,92.465l0,0-.04.057a3.57,3.57,0,0,0-.183.43,3.705,3.705,0,0,0-.382.9,3.7,3.7,0,0,0-.031.924A3.537,3.537,0,0,0,0,95.287l.013.036a3.7,3.7,0,0,0,.137.384,3.785,3.785,0,0,0,.367.928,3.837,3.837,0,0,0,.27.322,3.718,3.718,0,0,0,.694.714c.045.033.066.085.113.117a3.65,3.65,0,0,0,.524.253,3.857,3.857,0,0,0,.4.2,3.777,3.777,0,0,0,1.21.216A3.6,3.6,0,0,0,4.36,98.4l20.176-3.363L34.57,111.76l.044.055c.031.05.076.089.109.137a3.7,3.7,0,0,0,.789.826c.081.063.157.123.243.179a3.76,3.76,0,0,0,1.2.531l.047.02a3.834,3.834,0,0,0,.813.089,3.748,3.748,0,0,0,1.14-.2,3.583,3.583,0,0,0,.357-.153,3.62,3.62,0,0,0,.448-.191c.064-.039.1-.1.158-.144a3.7,3.7,0,0,0,.7-.641,2.4,2.4,0,0,0,.706-1.2,3.739,3.739,0,0,0,.162-.4l.021-.052L49.9,72.284l2.627,2.023a6.933,6.933,0,0,0,8.442,0l2.623-2.019,8.389,38.337.021.052q.253.647.568,1.266a3.789,3.789,0,0,0,.3.334,3.7,3.7,0,0,0,.7.641c.061.042.094.105.158.144a3.622,3.622,0,0,0,.448.191,3.579,3.579,0,0,0,.357.153,3.747,3.747,0,0,0,1.14.2,3.86,3.86,0,0,0,.814-.089l.047-.02a3.762,3.762,0,0,0,1.2-.531c.086-.056.162-.116.242-.178a3.739,3.739,0,0,0,.79-.827c.034-.049.078-.087.109-.137l.044-.055L88.96,95.037,109.137,98.4a3.593,3.593,0,0,0,.625.052,3.776,3.776,0,0,0,1.21-.216,3.849,3.849,0,0,0,.4-.2,3.652,3.652,0,0,0,.524-.253c.047-.031.068-.083.113-.117a3.718,3.718,0,0,0,.694-.714,3.827,3.827,0,0,0,.27-.322,3.782,3.782,0,0,0,.367-.928,3.7,3.7,0,0,0,.137-.384l.013-.036a3.533,3.533,0,0,0-.018-.512ZM36.157,99.686,29.7,88.931l-.027-.03a3.734,3.734,0,0,0-.777-.851c-.081-.07-.136-.174-.223-.236a3.726,3.726,0,0,0-.885-.413,3.674,3.674,0,0,0-.428-.2,3.851,3.851,0,0,0-.509-.028,3.675,3.675,0,0,0-.976-.031l-.043,0L11.895,89.469,30.338,62.587l.649,2.291a6.814,6.814,0,0,0,6.915,4.9l4.851-.231ZM62.942,63.228,56.748,68l-6.2-4.777a6.952,6.952,0,0,0-4.23-1.424c-.107,0-.211,0-.318.008l-7.906.377L36.06,55a6.7,6.7,0,0,0-2.914-3.849l-6.46-4.03L29.4,40.311a6.543,6.543,0,0,0,0-4.877l-2.714-6.811L33.139,24.6a6.692,6.692,0,0,0,2.921-3.86l2.034-7.177,7.917.377a7.088,7.088,0,0,0,4.544-1.424l6.194-4.77,6.2,4.777A7.069,7.069,0,0,0,67.5,13.935l7.906-.377,2.034,7.185a6.7,6.7,0,0,0,2.914,3.849l6.46,4.031L84.1,35.43a6.543,6.543,0,0,0,0,4.877l2.714,6.811-6.452,4.027a6.691,6.691,0,0,0-2.921,3.86L75.4,62.182l-7.917-.377a6.842,6.842,0,0,0-4.544,1.424ZM87.661,87.145c-.015,0-.029,0-.044,0a3.676,3.676,0,0,0-.981.032,3.724,3.724,0,0,0-.5.026q-.658.3-1.31.606a3.871,3.871,0,0,0-.309.326,3.715,3.715,0,0,0-.693.76l-.03.033L77.34,99.686l-6.6-30.144,4.848.231a6.863,6.863,0,0,0,6.918-4.9l.649-2.291L101.6,89.468Z" transform="translate(-0.002 0)"/>
</svg>
