<svg xmlns="http://www.w3.org/2000/svg" width="620" height="674.886" viewBox="0 0 620 674.886">
  <defs>
    <style>
      .cls-1, .cls-2, .cls-3, .cls-4, .cls-6 {
        fill: none;
      }

      .cls-1, .cls-2, .cls-4 {
        stroke: #ff194a;
      }

      .cls-1 {
        stroke-width: 7px;
      }

      .cls-2 {
        stroke-width: 5px;
      }

      .cls-4 {
        stroke-width: 3px;
      }

      .cls-5, .cls-7 {
        stroke: none;
      }

      .cls-7 {
        fill: #ff194a;
      }
    </style>
  </defs>
  <g id="Component_53_1" data-name="Component 53 – 1" transform="translate(0 1.704)">
    <g id="Ellipse_7" data-name="Ellipse 7" class="cls-1" transform="translate(0 65.183)">
      <circle class="cls-5" cx="26" cy="26" r="26"/>
      <circle class="cls-6" cx="26" cy="26" r="22.5"/>
    </g>
    <g id="Ellipse_8" data-name="Ellipse 8" class="cls-2" transform="translate(581 634.183)">
      <circle class="cls-5" cx="19.5" cy="19.5" r="19.5"/>
      <circle class="cls-6" cx="19.5" cy="19.5" r="17"/>
    </g>
    <g id="Polygon_2" data-name="Polygon 2" class="cls-3" transform="translate(251.422 249.716) rotate(30)">
      <path class="cls-5" d="M30.5,0,61,52H0Z"/>
      <path class="cls-7" d="M 30.50000190734863 13.83584594726563 L 12.22102737426758 45 L 48.77897644042969 45 L 30.50000190734863 13.83584594726563 M 30.50000190734863 0 L 61 52 L 3.814697265625e-06 52 L 30.50000190734863 0 Z"/>
    </g>
    <g id="Polygon_3" data-name="Polygon 3" class="cls-3" transform="translate(199.045 630.281) rotate(-79)">
      <path class="cls-5" d="M25.5,0,51,44H0Z"/>
      <path class="cls-7" d="M 25.5 13.96025466918945 L 12.14741897583008 37 L 38.85257720947266 37 L 25.5 13.96025466918945 M 25.5 0 L 51 44 L 0 44 L 25.5 0 Z"/>
    </g>
    <path id="Path_37" data-name="Path 37" class="cls-2" d="M251.368,569.274s-20.813,23.786,31.384,21.473,20.152,20.152,23.786,29.4" transform="translate(-228 -229.817)"/>
    <path id="Path_38" data-name="Path 38" class="cls-4" d="M249.188,569.274s-9.737,11.128,14.683,10.047S273.3,588.749,275,593.077" transform="matrix(0.588, -0.809, 0.809, 0.588, -352.915, -109.693)"/>
    <path id="Path_39" data-name="Path 39" class="cls-4" d="M249.188,569.274s-9.737,11.128,14.683,10.047S273.3,588.749,275,593.077" transform="translate(1082.213 445.184) rotate(107)"/>
  </g>
</svg>
