<svg xmlns="http://www.w3.org/2000/svg" width="95.437" height="95.437" viewBox="0 0 95.437 95.437">
  <defs>
    <style>
      .cls-1 {
        fill: #ff194a;
      }
    </style>
  </defs>
  <path id="iconfinder_alarm-clock_171279" class="cls-1" d="M47.719,29.824a5.967,5.967,0,0,0-5.965,5.965V51.3l-4.2,4.2a5.456,5.456,0,0,0-1.766,4.155,5.967,5.967,0,0,0,5.965,5.965,5.752,5.752,0,0,0,4.152-1.766l6.177-6.174a5.616,5.616,0,0,0,1.6-3.99V35.789A5.967,5.967,0,0,0,47.719,29.824Zm0-17.895a41.7,41.7,0,0,0-33.37,66.776L7.7,85.357a5.617,5.617,0,0,0-1.733,4.116,6.032,6.032,0,0,0,5.965,5.965,5.654,5.654,0,0,0,4.116-1.73L22.7,87.057a41.54,41.54,0,0,0,50.045,0L79.392,93.7a5.646,5.646,0,0,0,4.116,1.733,6.034,6.034,0,0,0,5.965-5.965,5.625,5.625,0,0,0-1.73-4.116l-6.651-6.651A41.7,41.7,0,0,0,47.719,11.93Zm0,71.578A29.824,29.824,0,1,1,77.543,53.684,29.827,29.827,0,0,1,47.719,83.508ZM77.543,0A17.867,17.867,0,0,0,62.449,8.309,47.823,47.823,0,0,1,89.705,30.993,17.876,17.876,0,0,0,77.543,0ZM32.989,8.309A17.882,17.882,0,1,0,5.732,31,47.83,47.83,0,0,1,32.989,8.309Z"/>
</svg>
