<svg xmlns="http://www.w3.org/2000/svg" width="130.4" height="146.607" viewBox="0 0 130.4 146.607">
  <g id="Lowkey_Flips" data-name="Lowkey Flips" transform="translate(-519.8 -5733.593)">
    <g id="iconfinder_money_bag_309025" transform="translate(530 5731.593)">
      <g id="Group_7" data-name="Group 7" transform="translate(28.689 2)">
        <path id="Path_25" data-name="Path 25" d="M29.419,14.277c1.6,2.135,3.736,3.2,5.872,4.27a49.577,49.577,0,0,0-2.135,6.939H30.487c-1.6,0-3.736-.534-5.338-.534-.534-1.068-1.6-2.669-2.135-3.736a1.864,1.864,0,0,0-.534-1.068,22.6,22.6,0,0,0,6.939-5.872M29.419,2h0c-2.669,0-5.338.534-8.007,4.8-2.135,3.736-5.338,3.736-10.142,3.736-4.27,0-5.338,3.2-3.2,6.405,1.068,1.6,8.007,13.345,9.608,16.014,1.6,2.135,8.007,3.736,12.811,3.736h1.068c4.8,0,12.277-2.135,11.743-5.872-.534-6.939,6.405-16.014,7.473-17.081,1.6-2.135,1.068-6.939-3.2-6.939a6.77,6.77,0,0,0-3.2.534,10.056,10.056,0,0,1-4.27,1.068,2.935,2.935,0,0,1-2.669-1.6c-3.2-4.27-5.872-4.8-8.007-4.8Z" transform="translate(-7 -2)" fill="#1a1515"/>
      </g>
      <g id="Group_8" data-name="Group 8" transform="translate(29.757 13.743)">
        <path id="Path_26" data-name="Path 26" d="M16.808,23.416c1.6,2.669,9.074,3.736,13.878,3.736s12.277-2.135,11.743-5.872C41.9,14.342,48.835,5.268,49.9,4.2c-2.135,1.068-3.736,2.669-5.872,2.135-1.068,1.068-3.736,7.473-9.074,7.473-3.736,0-4.27-5.338-6.939-5.338s-3.2,3.736-5.338,4.27C17.876,13.808,14.139,9,11.47,5.8c-1.068,0-3.2-1.6-4.27,2.135C8.268,9,15.207,20.747,16.808,23.416Z" transform="translate(-7.2 -4.2)" fill="#1a1515"/>
      </g>
      <path id="Path_27" data-name="Path 27" d="M63.919,8.8a31.132,31.132,0,0,1-10.676,2.669H52.176a30.681,30.681,0,0,1-10.142-1.6C19.081,16.807,2,40.293,2,56.841,2,76.591,26.02,79.26,55.378,79.26s53.378-2.669,53.378-22.419C108.757,39.226,89.541,14.138,63.919,8.8ZM53.243,39.226a20.322,20.322,0,0,0,3.2,2.669,19.681,19.681,0,0,1,7.473,4.27,10.559,10.559,0,0,1,2.669,7.473,10.147,10.147,0,0,1-2.669,6.939,12.176,12.176,0,0,1-6.405,3.2v4.8H53.777v-4.8a13.974,13.974,0,0,1-6.939-3.2c-1.6-1.6-2.669-4.8-2.669-8.007h6.939a10.659,10.659,0,0,0,1.068,4.8,3.8,3.8,0,0,0,3.2,1.6,4.077,4.077,0,0,0,2.669-1.068,7.587,7.587,0,0,0,1.068-3.2,4.512,4.512,0,0,0-1.068-3.2c-.534-1.068-1.6-1.6-3.2-2.669a19.682,19.682,0,0,1-7.473-4.27,10.355,10.355,0,0,1,0-13.878,12.176,12.176,0,0,1,6.405-3.2V22.145h3.736v5.338a9.9,9.9,0,0,1,6.405,3.736c1.6,2.135,2.135,4.27,2.135,7.473H59.115a10.056,10.056,0,0,0-1.068-4.27,2.935,2.935,0,0,0-2.669-1.6,4.077,4.077,0,0,0-2.669,1.068,6.77,6.77,0,0,0-.534,3.2C52.71,37.624,52.71,38.692,53.243,39.226Z" transform="translate(0 29.497)" fill="#1a1515"/>
    </g>
    <text id="LOWKEY_FLIPS-2" data-name="LOWKEY FLIPS" transform="translate(585 5875)" fill="#1a1515" stroke="#1a1515" stroke-width="0.2" font-size="19" font-family="SegoeUI-Bold, Segoe UI" font-weight="700"><tspan x="-64.946" y="0">LOWKEY FLIPS</tspan></text>
  </g>
</svg>
