<svg xmlns="http://www.w3.org/2000/svg" width="166.4" height="160.114" viewBox="0 0 166.4 160.114">
  <g id="Ticket_Reselling" data-name="Ticket Reselling" transform="translate(-1255.8 -5449.086)">
    <path id="iconfinder_ticket_1608951" d="M133.049,83.577,158.8,107.061l-46.614,42.508L86.434,126.085Zm-17.2,72.754L166.217,110.4a4.385,4.385,0,0,0,0-6.688l-29.5-26.9a5.7,5.7,0,0,0-7.334,0L79.019,122.741a4.385,4.385,0,0,0,0,6.688l29.5,26.9a5.7,5.7,0,0,0,7.334,0ZM188.3,108.993l-73.915,67.478a11.266,11.266,0,0,1-14.75,0l-10.268-9.364a13.473,13.473,0,0,0,0-20.214,16.839,16.839,0,0,0-22.166,0L57.015,137.53a9.008,9.008,0,0,1,0-13.451L130.93,56.75a11.266,11.266,0,0,1,14.75,0l10.187,9.289a13.473,13.473,0,0,0,0,20.214,16.839,16.839,0,0,0,22.166,0L188.3,95.542a9.008,9.008,0,0,1,0,13.451Z" transform="translate(1216.094 5395.086)" fill="#1a1515"/>
    <text id="TICKET_RESELLING-2" data-name="TICKET RESELLING" transform="translate(1339 5604)" fill="#1a1515" stroke="#1a1515" stroke-width="0.2" font-size="19" font-family="SegoeUI-Bold, Segoe UI" font-weight="700"><tspan x="-82.619" y="0">TICKET RESELLING</tspan></text>
  </g>
</svg>
